<?xml version="1.0" standalone="no"?>
<!DOCTYPE svg PUBLIC "-//W3C//DTD SVG 20010904//EN"
 "http://www.w3.org/TR/2001/REC-SVG-20010904/DTD/svg10.dtd">
<svg version="1.0" xmlns="http://www.w3.org/2000/svg"
 width="500.000000pt" height="500.000000pt" viewBox="0 0 500.000000 500.000000"
 preserveAspectRatio="xMidYMid meet">
<metadata>
Created by potrace 1.11, written by Peter Selinger 2001-2013
</metadata>
<g transform="translate(0.000000,500.000000) scale(0.100000,-0.100000)"
fill="#000000" stroke="none">
<path d="M2379 2571 c-5 -132 6 -680 14 -688 3 -3 13 10 21 28 8 19 15 27 16
19 1 -8 3 -27 5 -42 4 -32 -29 -80 -49 -72 -32 12 -36 57 -39 443 -2 233 -6
316 -15 319 -7 2 -12 0 -12 -5 0 -5 -9 -9 -21 -10 -47 -4 -239 -142 -239 -172
0 -5 -4 -11 -8 -13 -14 -5 -69 -92 -96 -149 -23 -50 -42 -111 -52 -167 -4 -22
-4 -23 27 -7 17 9 38 18 47 20 10 2 36 8 58 13 47 11 200 5 234 -8 3 -1 8 -2
11 -2 15 2 48 -44 40 -57 -7 -10 -15 -10 -42 5 -38 20 -185 27 -254 12 -22 -5
-52 -12 -67 -15 -16 -3 -28 -10 -28 -15 0 -5 -4 -7 -9 -4 -5 3 -11 -3 -14 -15
-8 -28 21 -38 165 -55 73 -9 211 -75 226 -109 19 -41 14 -60 -22 -93 -36 -33
-103 -65 -116 -57 -5 3 -11 -1 -13 -7 -4 -9 -8 -10 -14 -2 -4 6 -18 14 -30 18
-26 8 -37 47 -22 80 10 21 15 23 31 15 14 -8 16 -14 8 -29 -8 -15 -6 -21 7
-28 27 -13 76 4 114 39 32 30 33 31 14 45 -11 8 -28 21 -37 29 -21 17 -90 41
-143 49 -22 3 -51 8 -65 11 -14 3 -41 8 -60 11 -19 4 -41 12 -49 18 -12 9 -13
5 -9 -22 2 -17 2 -32 -2 -32 -14 0 -49 47 -56 75 -15 66 -46 67 -63 2 -13 -51
-19 -61 -48 -76 -52 -27 -136 -10 -162 32 -17 26 -22 107 -11 148 17 59 -18
83 -41 28 -17 -43 -15 -149 5 -187 49 -96 187 -118 262 -43 l29 30 38 -41 c20
-22 37 -37 37 -32 0 21 28 -36 40 -81 7 -27 16 -54 19 -60 3 -5 6 -15 7 -22 8
-48 165 -253 194 -253 6 0 8 -4 5 -10 -3 -5 0 -10 8 -10 8 0 26 -11 42 -24 29
-25 134 -69 195 -82 41 -8 218 -4 228 6 1 1 5 3 10 4 30 5 92 31 92 38 0 5 4
7 9 4 9 -6 94 45 105 62 4 7 16 7 35 -1 27 -10 33 -8 71 26 42 39 62 41 53 7
-5 -19 4 -25 35 -21 12 2 37 20 69 50 7 7 17 11 20 7 7 -7 -37 -106 -47 -106
-4 0 -28 -24 -53 -53 -31 -36 -43 -58 -37 -67 13 -21 63 17 115 88 25 34 63
74 85 88 22 15 40 33 40 40 0 18 -9 18 -32 -3 -24 -21 -30 -13 -14 18 7 14 16
37 20 52 10 41 -22 35 -75 -13 -24 -23 -53 -46 -63 -52 -16 -9 -18 -8 -12 8
18 45 19 74 3 74 -9 0 -22 -6 -29 -13 -23 -22 -96 -77 -102 -77 -11 0 -6 16
12 36 141 153 205 438 143 642 -5 17 -8 32 -6 32 3 0 -11 34 -30 76 -43 93
-109 187 -165 234 -23 19 -48 40 -54 46 -29 27 -206 102 -206 87 0 -3 -6 -1
-12 4 -7 6 -59 10 -115 10 l-103 0 -1 -26z m345 -343 c21 -30 20 -48 -3 -48
-25 0 -51 26 -51 51 0 27 35 25 54 -3z m-180 -215 c4 -10 4 -14 0 -11 -4 4
-16 2 -27 -3 -15 -8 -22 -8 -28 2 -5 9 -2 16 9 21 28 11 40 9 46 -9z m185 -57
c1 -22 7 -55 13 -72 13 -36 4 -84 -16 -84 -20 0 -29 36 -40 156 -2 30 0 56 7
63 16 16 33 -14 36 -63z m-49 -142 c0 -8 -19 -13 -24 -6 -3 5 1 9 9 9 8 0 15
-2 15 -3z m175 -404 c3 -5 2 -10 -4 -10 -5 0 -13 5 -16 10 -3 6 -2 10 4 10 5
0 13 -4 16 -10z"/>
<path d="M4636 2521 c-5 -8 -27 -189 -41 -351 -3 -30 -8 -71 -10 -90 -2 -19
-7 -57 -10 -85 -4 -27 -8 -57 -10 -65 -2 -8 -7 -42 -11 -75 -3 -33 -13 -80
-20 -105 -16 -53 -19 -164 -4 -155 6 4 9 9 6 13 -2 4 4 24 13 46 16 38 17 36
16 -108 0 -122 3 -148 17 -162 15 -15 17 -15 31 12 15 30 49 148 56 194 1 3
16 -17 34 -44 42 -64 56 -72 93 -55 27 13 75 92 103 171 l10 28 -27 -20 c-62
-44 -126 -27 -161 43 -15 29 -17 46 -10 69 16 59 46 103 79 120 47 24 60 40
66 77 4 23 0 39 -12 52 -37 41 -68 20 -118 -77 -57 -112 -81 -190 -92 -303 -9
-78 -21 -84 -18 -9 3 99 14 279 21 323 3 22 6 54 8 70 7 73 17 148 21 168 11
52 13 256 3 286 -12 34 -25 46 -33 32z"/>
<path d="M807 2514 c-2 -3 -22 -6 -43 -8 -21 -2 -75 -13 -119 -25 -320 -82
-516 -177 -545 -266 -42 -128 175 -216 570 -230 340 -12 426 -16 450 -20 14
-2 43 -6 65 -9 179 -25 295 -77 295 -132 0 -72 -170 -175 -394 -239 -88 -25
-109 -30 -176 -41 -19 -3 -39 -8 -43 -11 -5 -3 -72 -7 -149 -9 -78 -2 -143 -6
-146 -9 -3 -3 1 -12 9 -20 22 -22 210 -21 314 1 11 3 32 7 46 9 165 24 449
138 522 209 43 41 68 93 62 124 -5 27 -24 62 -33 62 -5 0 -17 8 -28 18 -10 9
-50 27 -89 39 -90 28 -101 31 -155 38 -25 3 -52 8 -60 10 -26 7 -207 16 -400
21 -102 2 -201 6 -220 8 -246 28 -364 66 -395 126 l-17 32 45 43 c52 50 189
119 335 169 56 19 102 34 102 32 0 -2 21 2 48 10 113 35 289 37 377 5 97 -36
95 -35 95 -15 0 40 -100 74 -231 79 -48 2 -90 1 -92 -1z"/>
<path d="M3250 2450 c-6 -11 -13 -82 -15 -158 -4 -147 12 -259 39 -274 14 -8
53 -124 91 -271 18 -70 88 -226 102 -228 4 0 18 -2 31 -3 12 -2 29 2 37 8 7 6
39 78 70 161 30 82 60 154 64 158 10 10 15 -4 27 -68 11 -61 12 -64 24 -114
18 -75 52 -105 103 -90 46 13 73 34 91 73 19 40 74 224 82 276 3 19 10 52 15
74 22 84 35 185 33 263 -3 131 -17 159 -59 113 -13 -14 -19 -40 -21 -92 -1
-40 -5 -84 -8 -98 -3 -14 -11 -52 -16 -85 -6 -33 -19 -89 -30 -125 -10 -36
-31 -105 -45 -155 -29 -97 -40 -118 -48 -89 -30 110 -37 226 -28 454 6 128 4
139 -22 145 -32 8 -91 -19 -104 -48 -7 -14 -13 -58 -14 -98 -4 -118 -49 -296
-109 -432 -18 -40 -24 -46 -36 -36 -8 6 -14 21 -14 34 0 12 -3 25 -7 29 -4 3
-8 12 -9 19 -1 7 -9 40 -18 74 -24 92 -46 227 -51 313 -9 167 -13 198 -29 228
-31 60 -104 84 -126 42z"/>
<path d="M4230 1939 c-19 -23 -53 -62 -74 -86 -27 -30 -41 -55 -42 -79 -3 -36
6 -43 26 -19 20 24 27 18 25 -20 -2 -46 29 -83 76 -90 30 -5 43 -1 70 22 94
77 136 185 99 253 -14 26 -54 42 -86 34 -18 -5 -24 -3 -22 7 2 7 -6 15 -17 17
-13 2 -31 -11 -55 -39z m117 -81 c23 -33 15 -68 -25 -108 -55 -55 -74 -53 -74
5 0 33 3 42 34 78 34 39 50 45 65 25z"/>
</g>
</svg>
